<?xml version="1.0" encoding="utf-8"?>
<!-- Generator: Adobe Illustrator 23.0.1, SVG Export Plug-In . SVG Version: 6.00 Build 0)  -->
<svg version="1.1" id="图层_1" xmlns="http://www.w3.org/2000/svg" xmlns:xlink="http://www.w3.org/1999/xlink" x="0px" y="0px"
	 viewBox="0 0 141.73 141.73" style="enable-background:new 0 0 141.73 141.73;" xml:space="preserve">
<style type="text/css">
	.st0{fill:#FFFFFF;stroke:#231815;stroke-width:4;stroke-miterlimit:10;}
	.st1{fill:#FEFEFE;}
	.st2{fill:#231F20;}
	.st3{fill:#231815;}
</style>
<path class="st0" d="M89.05,117.17H55.98c-3.27,0-5.96-2.52-6.22-5.72c-0.03-0.34,0.03-0.69,0.12-1.02l9.57-34.22
	c0.39-1.38,1.64-2.33,3.08-2.33h20.84c1.46,0,2.73,0.99,3.09,2.4l8.72,34.19c0.08,0.31,0.13,0.63,0.1,0.95
	C95.03,114.63,92.34,117.17,89.05,117.17z"/>
<path class="st1" d="M136.08,11.23c0.01-2.98-0.6-3.59-3.58-3.58c-40.33,0.12-80.67,0.12-121,0c-2.98-0.01-3.59,0.6-3.58,3.58
	C8.04,52.73,8,94.23,8,135.73c41.5,0,83-0.04,124.5,0.08c2.98,0.01,3.59-0.6,3.58-3.58C135.96,91.9,135.96,51.57,136.08,11.23z
	 M112.04,73.6c-0.48,8.8-2.58,17.94-8.42,24.68c-0.64,0.74-1.34,1.2-2.06,1.44c-2.02,1.66-3.21,4.31-5.12,6.08
	c-2.68,2.49-6.15,3.68-9.21,5.57c-1.79,1.1-3.52,0.92-4.87,0.07c-3.69,0.87-7.55,1.42-11.1,1.86c-1.75,0.22-3.01-0.38-3.79-1.37
	c-3.61-0.11-7.35-0.62-10.6-1.87c-1.71,0.52-3.61,0.02-5.1-1.18c-2.38-1.93-4.75-4.03-7.02-6.25c-2.42-1.94-4.49-4.16-6.08-6.61
	c-0.58-0.71-1.14-1.43-1.68-2.16c-0.36-0.48-0.57-1.03-0.66-1.59c-0.97-0.99-1.61-2.2-1.85-3.81c-0.52-1.01-1.11-2.43-1.51-3.67
	c-0.41-0.95-0.73-1.93-0.9-2.99c-0.04-0.24-0.06-0.5-0.08-0.78c-0.13-0.37-0.28-0.72-0.47-1.06c-0.81-1.43-0.85-2.81-0.42-4
	c-0.02-0.11-0.06-0.21-0.08-0.32c-0.46-1.04-0.59-2.22-0.24-3.3c0.02,0.58,0.03,0.57,0.02-0.03c-0.02-0.31-0.05-0.62-0.08-0.93
	c-0.02-0.47,0-0.86,0.05-1.33c0.08-0.75,0.2-1.46,0.35-2.19c0.05-0.23,0.1-0.46,0.15-0.69c0-0.07,0.01-0.13,0.01-0.23
	c0.02-0.57,0.15-1.1,0.32-1.59c0.02-0.36,0.08-0.7,0.2-0.99c0.01-0.02,0.01-0.04,0.02-0.06c-0.1-1.01,0.08-2.04,0.51-2.94
	c0.05-0.33,0.13-0.66,0.24-0.98c-0.26-1.79,0.52-3.6,1.55-5.21c0.11-0.39,0.25-0.77,0.46-1.12c2.94-4.82,5.82-8.47,9.84-12.41
	c4.06-3.97,8.72-6.18,13.82-8.53c0.79-0.37,1.57-0.51,2.31-0.5c3.43-1.2,7.04-1.86,10.7-1.86c4.62,0,8.76,1.98,13.23,2.31
	c1.07-0.26,2.29-0.09,3.52,0.73c5.44,3.62,11.5,5.62,14.78,11.71c0.05,0.1,0.08,0.19,0.13,0.29c4.97,4.89,9.05,10.14,10.4,17.31
	c0.17,0.89,0.11,1.7-0.1,2.43c0.34,1.35,0.57,2.72,0.62,4.14C113.91,71.51,113.16,72.81,112.04,73.6z"/>
<path class="st2" d="M125.72,66.06c-1.3-12.14-6.29-23.17-15.09-31.61C97.7,22.04,82.05,16.61,62.82,19.86
	C41.27,22.43,19.4,41.3,18.3,72.09c-0.5,14.14,5.12,27.1,15.38,37.54c13.08,13.31,29.08,18.27,47.3,16
	c11.5-1.44,21.35-7.18,29.27-15.25C122.18,98.22,127.54,83.11,125.72,66.06z M112.04,73.6c-0.48,8.8-2.58,17.94-8.42,24.68
	c-0.64,0.74-1.34,1.2-2.06,1.44c-2.02,1.66-3.21,4.31-5.12,6.08c-2.68,2.49-6.15,3.68-9.21,5.57c-1.79,1.1-3.52,0.92-4.87,0.07
	c-3.69,0.87-7.55,1.42-11.1,1.86c-1.75,0.22-3.01-0.38-3.79-1.37c-3.61-0.11-7.35-0.62-10.6-1.87c-1.71,0.52-3.61,0.02-5.1-1.18
	c-2.38-1.93-4.75-4.03-7.02-6.25c-2.42-1.94-4.49-4.16-6.08-6.61c-0.58-0.71-1.14-1.43-1.68-2.16c-0.36-0.48-0.57-1.03-0.66-1.59
	c-0.97-0.99-1.61-2.2-1.85-3.81c-0.52-1.01-1.11-2.43-1.51-3.67c-0.41-0.95-0.73-1.93-0.9-2.99c-0.04-0.24-0.06-0.5-0.08-0.78
	c-0.13-0.37-0.28-0.72-0.47-1.06c-0.81-1.43-0.85-2.81-0.42-4c-0.02-0.11-0.06-0.21-0.08-0.32c-0.46-1.04-0.59-2.22-0.24-3.3
	c0.02,0.58,0.03,0.57,0.02-0.03c-0.02-0.31-0.05-0.62-0.08-0.93c-0.02-0.47,0-0.86,0.05-1.33c0.08-0.75,0.2-1.46,0.35-2.19
	c0.05-0.23,0.1-0.46,0.15-0.69c0-0.07,0.01-0.13,0.01-0.23c0.02-0.57,0.15-1.1,0.32-1.59c0.02-0.36,0.08-0.7,0.2-0.99
	c0.01-0.02,0.01-0.04,0.02-0.06c-0.1-1.01,0.08-2.04,0.51-2.94c0.05-0.33,0.13-0.66,0.24-0.98c-0.26-1.79,0.52-3.6,1.55-5.21
	c0.11-0.39,0.25-0.77,0.46-1.12c2.94-4.82,5.82-8.47,9.84-12.41c4.06-3.97,8.72-6.18,13.82-8.53c0.79-0.37,1.57-0.51,2.31-0.5
	c3.43-1.2,7.04-1.86,10.7-1.86c4.62,0,8.76,1.98,13.23,2.31c1.07-0.26,2.29-0.09,3.52,0.73c5.44,3.62,11.5,5.62,14.78,11.71
	c0.05,0.1,0.08,0.19,0.13,0.29c4.97,4.89,9.05,10.14,10.4,17.31c0.17,0.89,0.11,1.7-0.1,2.43c0.34,1.35,0.57,2.72,0.62,4.14
	C113.91,71.51,113.16,72.81,112.04,73.6z"/>
<path class="st1" d="M114.35,67.64c-0.28-11.28-7.12-20.66-15.96-28c-8.87-7.36-19.06-10.05-30.45-8.94
	C53.55,32.1,41.03,41,34.59,54.06c2.93-4.82,5.82-8.47,9.84-12.4c4.06-3.97,8.72-6.18,13.82-8.53c0.79-0.37,1.57-0.51,2.31-0.5
	c3.43-1.2,7.04-1.86,10.7-1.86c4.62,0,8.76,1.98,13.23,2.31c1.07-0.26,2.29-0.09,3.52,0.73c5.44,3.62,11.5,5.62,14.78,11.71
	c0.05,0.1,0.08,0.19,0.13,0.29c4.97,4.89,9.05,10.14,10.4,17.31c0.17,0.89,0.11,1.7-0.1,2.43c0.34,1.35,0.57,2.72,0.62,4.14
	c0.06,1.82-0.7,3.12-1.82,3.91c-0.48,8.8-2.58,17.94-8.42,24.68c-0.64,0.74-1.34,1.2-2.06,1.44c-2.02,1.66-3.21,4.31-5.12,6.08
	c-2.68,2.49-6.15,3.68-9.21,5.57c-1.79,1.1-3.52,0.92-4.87,0.07c-3.69,0.87-7.55,1.42-11.1,1.86c-1.75,0.22-3.01-0.38-3.79-1.37
	c-3.61-0.11-7.35-0.62-10.6-1.87c-1.71,0.52-3.61,0.02-5.1-1.18c-2.38-1.93-4.75-4.03-7.02-6.25c-2.42-1.94-4.49-4.16-6.08-6.61
	c-0.58-0.71-1.14-1.43-1.68-2.16c-0.36-0.48-0.57-1.03-0.66-1.59c-0.97-0.99-1.61-2.2-1.85-3.81c-0.52-1.01-1.11-2.43-1.51-3.67
	c-0.41-0.95-0.73-1.93-0.9-2.99c-0.04-0.24-0.06-0.5-0.08-0.78c-0.13-0.37-0.28-0.72-0.47-1.06c-0.81-1.43-0.85-2.81-0.42-4
	c-0.02-0.11-0.06-0.21-0.08-0.32c-0.46-1.04-0.59-2.22-0.24-3.3c0.02,0.58,0.03,0.57,0.02-0.03c-0.02-0.31-0.05-0.62-0.08-0.93
	c-0.02-0.47,0-0.86,0.05-1.33c0.08-0.75,0.2-1.46,0.35-2.19c0.05-0.23,0.1-0.46,0.15-0.69c0-0.07,0.01-0.13,0.01-0.23
	c0.02-0.57,0.15-1.1,0.32-1.59c0.02-0.36,0.08-0.7,0.2-0.99c0.01-0.02,0.01-0.04,0.02-0.06c-0.1-1.01,0.08-2.04,0.51-2.94
	c0.05-0.33,0.13-0.66,0.24-0.97c-0.09-0.57-0.07-1.15,0.03-1.72c-1.51,4.24-2.42,8.84-2.6,13.69c1.86,24.85,17.75,43.79,47.38,41.63
	C95.71,112.67,115.11,98.33,114.35,67.64z"/>
<path class="st3" d="M81.93,74.87H64.75c-2.07,0-3.75-1.68-3.75-3.75l11-21.78h2.58l11.1,21.78C85.68,73.19,84,74.87,81.93,74.87z"
	/>
</svg>
